<svg width="24" height="24" viewBox="0 0 24 24" fill="none" xmlns="http://www.w3.org/2000/svg">
<g clip-path="url(#clip0_1_14)">
<path d="M23.9765 7.05582C23.9203 5.78061 23.7141 4.90391 23.4187 4.14424C23.1139 3.33787 22.6451 2.61593 22.0308 2.01577C21.4307 1.40628 20.704 0.932677 19.9069 0.632692C19.1429 0.337285 18.2707 0.131068 16.9955 0.0748437C15.7108 0.0138577 15.3029 -0.000244141 12.0445 -0.000244141C8.78604 -0.000244141 8.37819 0.0138577 7.09821 0.0700821C5.823 0.126306 4.9463 0.332707 4.18682 0.62793C3.38026 0.932677 2.65832 1.40152 2.05817 2.01577C1.44867 2.61593 0.975254 3.34263 0.675086 4.13966C0.379679 4.90391 0.173462 5.77585 0.117237 7.05106C0.0562514 8.3358 0.0421495 8.74365 0.0421495 12.0021C0.0421495 15.2605 0.0562514 15.6684 0.112476 16.9484C0.1687 18.2236 0.3751 19.1003 0.670507 19.86C0.975254 20.6663 1.44867 21.3883 2.05817 21.9884C2.65832 22.5979 3.38503 23.0715 4.18206 23.3715C4.9463 23.6669 5.81824 23.8731 7.09363 23.9294C8.37343 23.9858 8.78146 23.9997 12.0399 23.9997C15.2984 23.9997 15.7062 23.9858 16.9862 23.9294C18.2614 23.8731 19.1381 23.6669 19.8976 23.3715C21.5105 22.7479 22.7857 21.4727 23.4093 19.86C23.7045 19.0957 23.9109 18.2236 23.9672 16.9484C24.0234 15.6684 24.0375 15.2605 24.0375 12.0021C24.0375 8.74365 24.0327 8.3358 23.9765 7.05582ZM21.8153 16.8546C21.7636 18.0267 21.5667 18.6597 21.4026 19.0816C20.9994 20.1272 20.1695 20.957 19.124 21.3603C18.702 21.5243 18.0645 21.7212 16.897 21.7727C15.6311 21.8291 15.2515 21.843 12.0493 21.843C8.84703 21.843 8.46262 21.8291 7.20132 21.7727C6.02922 21.7212 5.39628 21.5243 4.97433 21.3603C4.45402 21.168 3.98042 20.8632 3.596 20.4647C3.19749 20.0755 2.89274 19.6067 2.70044 19.0864C2.53635 18.6644 2.33947 18.0267 2.28801 16.8594C2.2316 15.5935 2.21768 15.2137 2.21768 12.0114C2.21768 8.80922 2.2316 8.4248 2.28801 7.16369C2.33947 5.99159 2.53635 5.35865 2.70044 4.93669C2.89274 4.41621 3.19749 3.94279 3.60077 3.55819C3.98976 3.15967 4.4586 2.85493 4.97909 2.66281C5.40104 2.49872 6.03874 2.30184 7.20608 2.2502C8.47196 2.19397 8.85179 2.17987 12.0538 2.17987C15.2608 2.17987 15.6405 2.19397 16.9018 2.2502C18.0739 2.30184 18.7068 2.49872 19.1288 2.66281C19.6491 2.85493 20.1227 3.15967 20.5071 3.55819C20.9056 3.94737 21.2103 4.41621 21.4026 4.93669C21.5667 5.35865 21.7636 5.99617 21.8153 7.16369C21.8715 8.42956 21.8856 8.80922 21.8856 12.0114C21.8856 15.2137 21.8715 15.5887 21.8153 16.8546Z" fill="white"/>
<path d="M12.0445 5.83691C8.6408 5.83691 5.87921 8.59832 5.87921 12.0022C5.87921 15.406 8.6408 18.1674 12.0445 18.1674C15.4483 18.1674 18.2097 15.406 18.2097 12.0022C18.2097 8.59832 15.4483 5.83691 12.0445 5.83691ZM12.0445 16.0014C9.83634 16.0014 8.04522 14.2105 8.04522 12.0022C8.04522 9.79386 9.83634 8.00293 12.0445 8.00293C14.2528 8.00293 16.0437 9.79386 16.0437 12.0022C16.0437 14.2105 14.2528 16.0014 12.0445 16.0014V16.0014Z" fill="white"/>
<path d="M19.893 5.59287C19.893 6.38771 19.2485 7.03218 18.4535 7.03218C17.6587 7.03218 17.0142 6.38771 17.0142 5.59287C17.0142 4.79786 17.6587 4.15356 18.4535 4.15356C19.2485 4.15356 19.893 4.79786 19.893 5.59287V5.59287Z" fill="white"/>
</g>
<defs>
<clipPath id="clip0_1_14">
<rect width="24" height="24" fill="white" transform="translate(0 -0.000244141)"/>
</clipPath>
</defs>
</svg>
