<svg width="24" height="24" viewBox="0 0 24 24" fill="none" xmlns="http://www.w3.org/2000/svg">
<g clip-path="url(#clip0_1_10)">
<path d="M12.326 -0.000244141C5.74699 0.000755859 2.24999 4.21576 2.24999 8.81176C2.24999 10.9428 3.44099 13.6018 5.34799 14.4448C5.89199 14.6898 5.81999 14.3908 6.28799 12.6008C6.32499 12.4518 6.30599 12.3228 6.18599 12.1838C3.45999 9.03076 5.65399 2.54876 11.937 2.54876C21.03 2.54876 19.331 15.1308 13.519 15.1308C12.021 15.1308 10.905 13.9548 11.258 12.4998C11.686 10.7668 12.524 8.90376 12.524 7.65476C12.524 4.50676 7.83399 4.97376 7.83399 9.14476C7.83399 10.4338 8.28999 11.3038 8.28999 11.3038C8.28999 11.3038 6.78099 17.3998 6.50099 18.5388C6.02699 20.4668 6.56499 23.5878 6.61199 23.8568C6.64099 24.0048 6.80699 24.0518 6.89999 23.9298C7.04899 23.7348 8.87299 21.1328 9.38399 19.2518C9.56999 18.5668 10.333 15.7868 10.333 15.7868C10.836 16.6948 12.286 17.4548 13.831 17.4548C18.427 17.4548 21.749 13.4148 21.749 8.40176C21.733 3.59576 17.62 -0.000244141 12.326 -0.000244141V-0.000244141Z" fill="white"/>
</g>
<defs>
<clipPath id="clip0_1_10">
<rect width="24" height="24" fill="white" transform="translate(0 -0.000244141)"/>
</clipPath>
</defs>
</svg>
